<?xml version="1.0" encoding="UTF-8"?>
<svg xmlns="http://www.w3.org/2000/svg" xmlns:xlink="http://www.w3.org/1999/xlink" width="230pt" height="130pt" viewBox="0 0 230 130" version="1.1">
<g id="surface1">
<path style=" stroke:none;fill-rule:nonzero;fill:rgb(71.764706%,79.215686%,61.568627%);fill-opacity:1;" d="M 14.816406 89.800781 L 16.769531 90.828125 L 115.523438 103.808594 L 115.96875 95.765625 L 46.808594 87.714844 L 43.425781 87.148438 L 14.816406 89.800781 "/>
<path style=" stroke:none;fill-rule:nonzero;fill:rgb(71.764706%,79.215686%,61.568627%);fill-opacity:1;" d="M 215.179688 89.800781 L 114.324219 105.410156 L 114.027344 95.765625 L 183.1875 87.714844 L 186.199219 86.144531 L 215.179688 89.800781 "/>
<path style=" stroke:none;fill-rule:nonzero;fill:rgb(23.529412%,28.627451%,16.078431%);fill-opacity:1;" d="M 114.027344 34.65625 L 183.1875 42.128906 L 213.601562 41.460938 L 215.179688 40.046875 L 118.816406 23.964844 L 114.027344 34.65625 "/>
<path style=" stroke:none;fill-rule:nonzero;fill:rgb(45.882353%,61.176471%,24.313725%);fill-opacity:1;" d="M 46.808594 87.714844 L 14.816406 89.800781 L 13.925781 88.261719 L 13.925781 41.667969 L 14.816406 40.046875 L 43.722656 41.046875 L 46.808594 42.132812 L 46.808594 87.714844 "/>
<path style=" stroke:none;fill-rule:nonzero;fill:rgb(23.529412%,28.627451%,16.078431%);fill-opacity:1;" d="M 115.96875 34.65625 L 46.808594 42.128906 L 14.816406 40.046875 L 16.023438 39.171875 L 115.523438 26.039062 L 115.96875 34.65625 "/>
<path style=" stroke:none;fill-rule:nonzero;fill:rgb(29.411765%,38.039216%,17.254902%);fill-opacity:1;" d="M 114.863281 0.0078125 L 0 26.894531 L 0.0546875 102.972656 L 114.863281 129.839844 L 116.570312 128.636719 L 116.570312 1.570312 Z M 81.273438 99.050781 L 14.816406 89.800781 L 14.816406 40.046875 L 81.273438 30.800781 Z M 183.1875 87.714844 L 215.179688 89.800781 L 216.972656 88.332031 L 216.972656 41.460938 L 215.179688 40.046875 L 183.1875 42.132812 L 183.1875 87.714844 "/>
<path style=" stroke:none;fill-rule:nonzero;fill:rgb(45.882353%,61.176471%,24.313725%);fill-opacity:1;" d="M 114.863281 129.839844 L 229.945312 102.972656 L 230 26.894531 L 114.863281 0.0078125 Z M 148.722656 30.800781 L 215.179688 40.046875 L 215.179688 89.800781 L 148.722656 99.050781 Z M 148.722656 30.800781 "/>
</g>
</svg>
