<?xml version="1.0" encoding="UTF-8"?>
<svg xmlns="http://www.w3.org/2000/svg" xmlns:xlink="http://www.w3.org/1999/xlink" width="500pt" height="400pt" viewBox="0 0 500 400" version="1.1">
<g id="surface1">
<path style=" stroke:none;fill-rule:nonzero;fill:rgb(71.764706%,79.215686%,61.568627%);fill-opacity:1;" d="M 32.210938 276.308594 L 36.457031 279.476562 L 251.136719 319.414062 L 252.109375 294.660156 L 101.757812 269.894531 L 94.398438 268.152344 L 32.207031 276.308594 "/>
<path style=" stroke:none;fill-rule:nonzero;fill:rgb(71.764706%,79.215686%,61.568627%);fill-opacity:1;" d="M 467.78125 276.308594 L 248.535156 324.34375 L 247.882812 294.660156 L 398.230469 269.894531 L 404.785156 265.054688 L 467.78125 276.308594 "/>
<path style=" stroke:none;fill-rule:nonzero;fill:rgb(23.529412%,28.627451%,16.078431%);fill-opacity:1;" d="M 247.882812 106.632812 L 398.234375 129.632812 L 464.355469 127.574219 L 467.78125 123.226562 L 258.300781 73.734375 L 247.882812 106.632812 "/>
<path style=" stroke:none;fill-rule:nonzero;fill:rgb(45.882353%,61.176471%,24.313725%);fill-opacity:1;" d="M 101.757812 269.894531 L 32.210938 276.308594 L 30.273438 271.570312 L 30.273438 128.214844 L 32.210938 123.226562 L 95.054688 126.292969 L 101.757812 129.636719 L 101.757812 269.894531 "/>
<path style=" stroke:none;fill-rule:nonzero;fill:rgb(23.529412%,28.627451%,16.078431%);fill-opacity:1;" d="M 252.109375 106.632812 L 101.757812 129.632812 L 32.210938 123.226562 L 34.832031 120.523438 L 251.136719 80.117188 L 252.109375 106.632812 "/>
<path style=" stroke:none;fill-rule:nonzero;fill:rgb(29.411765%,38.039216%,17.254902%);fill-opacity:1;" d="M 249.699219 0.0273438 L 0 82.75 L 0.121094 316.835938 L 249.699219 399.511719 L 253.417969 395.804688 L 253.417969 4.835938 Z M 176.683594 304.769531 L 32.210938 276.308594 L 32.210938 123.226562 L 176.683594 94.777344 Z M 398.234375 269.894531 L 467.78125 276.308594 L 471.679688 271.785156 L 471.679688 127.574219 L 467.78125 123.226562 L 398.230469 129.636719 L 398.230469 269.894531 "/>
<path style=" stroke:none;fill-rule:nonzero;fill:rgb(45.882353%,61.176471%,24.313725%);fill-opacity:1;" d="M 249.699219 399.511719 L 499.882812 316.839844 L 500 82.753906 L 249.699219 0.0273438 Z M 323.308594 94.777344 L 467.78125 123.226562 L 467.78125 276.308594 L 323.308594 304.769531 Z M 323.308594 94.777344 "/>
</g>
</svg>
