<?xml version="1.0" encoding="UTF-8" standalone="no" ?>
<!DOCTYPE svg PUBLIC "-//W3C//DTD SVG 1.1//EN" "http://www.w3.org/Graphics/SVG/1.1/DTD/svg11.dtd">
<svg xmlns="http://www.w3.org/2000/svg" xmlns:xlink="http://www.w3.org/1999/xlink" version="1.1" width="500" height="400" viewBox="0 0 500 400" xml:space="preserve">
<desc>Created with Fabric.js 5.2.4</desc>
<defs>
</defs>
<rect x="0" y="0" width="100%" height="100%" fill="transparent"></rect>
<g transform="matrix(1 0 0 1 250 200)" id="016d6a87-bd9a-4c6b-adbd-8b8ee71cbd42"  >
<rect style="stroke: none; stroke-width: 1; stroke-dasharray: none; stroke-linecap: butt; stroke-dashoffset: 0; stroke-linejoin: miter; stroke-miterlimit: 4; fill: rgb(255,255,255); fill-rule: nonzero; opacity: 1;" vector-effect="non-scaling-stroke"  x="-250" y="-200" rx="0" ry="0" width="500" height="400" />
</g>
<g transform="matrix(Infinity NaN NaN Infinity 0 0)" id="a515846a-0087-40e6-bbd6-660ff21bd539"  >
</g>
<g transform="matrix(0.69 0 0 0.69 250 200)"  >
<g style="" vector-effect="non-scaling-stroke"   >
		<g transform="matrix(1 0 0 1 33 0)"  >
<path style="stroke: none; stroke-width: 1; stroke-dasharray: none; stroke-linecap: butt; stroke-dashoffset: 0; stroke-linejoin: miter; stroke-miterlimit: 4; fill: rgb(0,0,0); fill-rule: nonzero; opacity: 1;" vector-effect="non-scaling-stroke"  transform=" translate(-282.96, -199.92)" d="M 369.023438 0.527344 C 365.664062 1.152344 359.53125 3.058594 348.828125 6.84375 C 339.257812 10.230469 334.53125 11.644531 330.742188 12.171875 C 326.210938 12.828125 323.046875 12.007812 321.796875 9.867188 L 321.171875 8.75 L 320.507812 10.066406 C 318.554688 13.949219 318.320312 17.828125 319.882812 19.703125 C 320.9375 20.953125 323.320312 21.710938 326.132812 21.710938 L 328.4375 21.710938 L 326.484375 24.835938 C 322.890625 30.625 320.9375 36.742188 320.351562 44.308594 C 320.15625 46.808594 319.960938 54.175781 319.921875 60.691406 C 319.921875 67.203125 319.804688 72.566406 319.726562 72.664062 C 319.609375 72.730469 317.617188 73.222656 315.234375 73.71875 C 307.96875 75.261719 303.398438 77.5 301.25 80.527344 C 300.390625 81.808594 300.195312 82.46875 300.195312 84.375 C 300.195312 86.316406 300.390625 86.972656 301.328125 88.421875 C 303.75 92.074219 310.859375 96.613281 318.046875 99.078125 L 321.09375 100.132812 L 321.09375 103.980469 C 321.09375 106.085938 321.210938 108.75 321.328125 109.902344 L 321.601562 112.007812 L 325.15625 114.96875 C 333.28125 121.742188 344.179688 127.367188 352.460938 129.144531 C 353.828125 129.40625 355.15625 129.769531 355.429688 129.902344 C 355.820312 130.132812 361.445312 144.40625 361.210938 144.605469 C 360.703125 145.03125 353.085938 147.203125 345.703125 149.011719 C 326.71875 153.683594 317.617188 157.039062 312.03125 161.449219 C 308.867188 163.914062 308.007812 165.460938 307.929688 168.75 L 307.851562 171.546875 L 306.5625 171.777344 C 305.859375 171.90625 302.03125 172.105469 298.046875 172.203125 C 294.0625 172.335938 288.28125 172.699219 285.15625 173.027344 C 282.03125 173.386719 278.164062 173.75 276.5625 173.847656 C 263.710938 174.769531 252.148438 176.710938 247.265625 178.78125 C 239.765625 182.007812 228.359375 189.605469 217.1875 198.882812 L 209.960938 204.902344 L 207.773438 203.519531 C 206.601562 202.761719 203.359375 200.03125 200.585938 197.46875 C 195.507812 192.699219 193.828125 191.675781 192.265625 192.300781 C 191.914062 192.46875 177.617188 192.664062 160.546875 192.761719 C 131.835938 192.925781 129.414062 192.960938 128.242188 193.519531 C 126.601562 194.277344 125.78125 195.625 125.78125 197.664062 C 125.78125 198.949219 125.625 199.34375 125.117188 199.441406 C 124.726562 199.539062 117.578125 200.824219 109.179688 202.335938 C 100.820312 203.816406 87.695312 206.152344 80.078125 207.53125 L 66.210938 210.03125 L 66.09375 210.988281 C 66.015625 211.511719 66.132812 212.074219 66.367188 212.269531 C 66.640625 212.5 66.796875 215.921875 66.796875 222.566406 L 66.796875 232.53125 L 68.476562 232.699219 C 69.375 232.828125 73.28125 233.125 77.148438 233.386719 C 81.015625 233.652344 88.320312 234.175781 93.359375 234.539062 C 98.398438 234.902344 107.734375 235.558594 114.0625 236.019531 C 120.390625 236.480469 131.71875 237.269531 139.21875 237.828125 L 152.851562 238.78125 L 155.429688 237.699219 C 156.835938 237.074219 159.0625 236.183594 160.351562 235.722656 C 161.601562 235.230469 163.203125 234.507812 163.867188 234.078125 C 164.492188 233.652344 166.5625 232.632812 168.398438 231.777344 C 172.070312 230.097656 172.265625 229.867188 172.265625 226.808594 C 172.265625 225.066406 172.421875 225 178.945312 224.769531 L 183.828125 224.574219 L 184.765625 226.675781 C 188.046875 234.375 192.5 239.769531 196.757812 241.316406 C 199.492188 242.300781 211.25 241.578125 236.132812 238.949219 C 246.25 237.894531 266.757812 235.394531 268.554688 235 C 269.140625 234.867188 269.023438 235.03125 268.164062 235.59375 C 267.539062 236.019531 266.367188 236.808594 265.625 237.367188 C 264.414062 238.324219 263.046875 238.683594 253.320312 240.789062 C 247.304688 242.074219 241.171875 243.421875 239.648438 243.75 C 238.164062 244.078125 228.554688 246.152344 218.359375 248.355469 C 186.5625 255.230469 186.132812 255.328125 178.4375 258.617188 C 153.828125 269.078125 146.40625 287.171875 158.398438 307.238281 C 160.585938 310.886719 163.007812 314.046875 168.515625 320.394531 C 177.148438 330.328125 187.851562 344.210938 195.429688 355.296875 L 196.445312 356.808594 L 181.328125 362.632812 L 166.210938 368.488281 L 163.789062 370.625 C 162.34375 371.875 160.820312 373.683594 160.078125 374.933594 C 158.90625 376.941406 158.789062 377.367188 158.789062 380.261719 C 158.789062 382.992188 158.945312 383.585938 159.84375 385.03125 C 163.671875 391.152344 173.867188 396.117188 187.109375 398.289062 C 194.882812 399.574219 198.398438 399.835938 209.179688 399.800781 L 219.726562 399.800781 L 245.117188 389.113281 L 270.507812 378.453125 L 272.773438 375.65625 C 275.390625 372.46875 277.617188 368.882812 278.90625 365.789062 C 279.609375 364.175781 279.84375 362.894531 279.84375 360.691406 C 279.882812 358.027344 279.765625 357.566406 278.75 356.019531 C 278.125 355.066406 277.304688 354.046875 276.875 353.75 C 276.210938 353.191406 276.289062 353.09375 279.296875 350.65625 C 282.34375 348.191406 282.421875 348.09375 282.421875 346.578125 C 282.421875 345.097656 282.070312 344.539062 276.914062 337.925781 C 273.90625 334.046875 271.484375 330.824219 271.5625 330.757812 C 271.640625 330.691406 272.734375 330.921875 273.984375 331.25 C 280.703125 333.125 276.875 333.027344 338.867188 333.15625 C 378.554688 333.222656 397.03125 333.15625 399.6875 332.894531 C 421.445312 330.824219 438.75 317.007812 442.382812 298.816406 C 442.929688 296.050781 443.007812 293.488281 442.890625 281.578125 C 442.734375 267.730469 442.734375 267.566406 441.71875 264.441406 C 439.882812 258.683594 437.304688 254.113281 433.554688 249.800781 L 432.109375 248.125 L 435.976562 243.78125 C 442.539062 236.382812 448.59375 227.699219 451.015625 222.238281 C 451.679688 220.722656 451.71875 220.65625 452.070312 221.414062 C 454.492188 226.675781 457.460938 229.769531 461.953125 231.613281 C 464.492188 232.664062 464.84375 232.730469 468.945312 232.730469 C 472.96875 232.730469 473.398438 232.664062 475.898438 231.675781 C 480.507812 229.835938 484.296875 226.21875 486.171875 221.875 C 487.539062 218.683594 500.15625 138.71875 499.84375 135.164062 C 499.21875 127.53125 493.28125 121.644531 485 120.363281 C 477.070312 119.113281 468.515625 123.78125 465.273438 131.085938 C 464.6875 132.402344 463.085938 140 462.890625 142.367188 C 462.851562 142.5 462.265625 141.117188 461.523438 139.277344 C 458.125 130.65625 453.046875 125.757812 444.882812 123.222656 L 443.125 122.664062 L 435.15625 108.78125 C 430.78125 101.152344 426.796875 94.210938 426.328125 93.386719 L 425.429688 91.90625 L 428.90625 89.835938 C 435.351562 86.019531 439.960938 81.21875 443.242188 74.902344 C 445.390625 70.824219 446.25 68.058594 447.265625 62.335938 C 448.242188 56.511719 448.242188 51.546875 447.265625 44.902344 C 445.46875 33.027344 441.835938 25.460938 435.78125 21.050781 C 429.882812 16.742188 417.109375 10.527344 405.703125 6.449219 C 390.9375 1.117188 377.617188 -1.019531 369.023438 0.527344 Z M 423.28125 264.242188 C 424.648438 265.296875 425.78125 266.382812 425.78125 266.644531 C 425.78125 266.90625 426.015625 267.105469 426.328125 267.105469 C 427.226562 267.105469 430.703125 271.875 431.992188 274.835938 C 433.789062 278.980469 434.101562 281.742188 433.867188 291.316406 C 433.75 297.992188 433.554688 300.261719 433.046875 301.808594 C 432.265625 304.011719 430.507812 307.566406 430.117188 307.566406 C 430 307.566406 429.609375 307.074219 429.335938 306.480469 C 427.8125 303.652344 421.992188 300.492188 415.429688 299.011719 C 412.617188 298.355469 410.859375 298.257812 397.851562 298.027344 C 389.921875 297.863281 380.703125 297.730469 377.421875 297.730469 L 371.445312 297.699219 L 374.882812 295.328125 C 387.304688 286.742188 398.828125 277.960938 409.765625 268.75 L 418.554688 261.316406 L 419.6875 261.808594 C 420.273438 262.105469 421.914062 263.191406 423.28125 264.242188 Z M 423.28125 264.242188" stroke-linecap="round" />
</g>
		<g transform="matrix(1 0 0 1 -184.5 -62.15)"  >
<path style="stroke: none; stroke-width: 1; stroke-dasharray: none; stroke-linecap: butt; stroke-dashoffset: 0; stroke-linejoin: miter; stroke-miterlimit: 4; fill: rgb(0,0,0); fill-rule: nonzero; opacity: 1;" vector-effect="non-scaling-stroke"  transform=" translate(-65.46, -137.77)" d="M 29.335938 49.539062 C 28.867188 49.835938 25.351562 51.25 21.5625 52.699219 L 14.726562 55.296875 L 13.28125 54.113281 C 12.539062 53.488281 11.757812 52.960938 11.640625 52.960938 C 11.523438 52.960938 11.914062 54.40625 12.5 56.152344 C 13.085938 57.925781 14.375 61.808594 15.351562 64.800781 C 19.414062 77.203125 32.5 117.300781 32.617188 117.761719 C 32.734375 118.09375 31.796875 118.71875 29.765625 119.671875 C 20.15625 124.113281 10.9375 132.367188 6.25 140.65625 C -3.164062 157.238281 -1.835938 178.289062 10.234375 203.78125 C 12.578125 208.75 21.640625 224.605469 22.851562 225.824219 L 23.476562 226.480469 L 23.28125 225.824219 C 22.070312 221.972656 20.9375 210.164062 21.289062 204.933594 C 21.992188 193.882812 24.570312 186.347656 30 179.507812 C 32.109375 176.84375 37.304688 172.632812 40.351562 171.117188 C 42.617188 169.96875 48.789062 167.597656 48.984375 167.828125 C 49.0625 167.863281 51.445312 175.097656 54.296875 183.882812 C 57.148438 192.664062 59.648438 200.066406 59.804688 200.363281 C 60 200.722656 61.289062 200.988281 64.335938 201.28125 C 66.640625 201.511719 70.820312 201.972656 73.554688 202.335938 L 78.554688 202.925781 L 87.226562 201.152344 C 100.703125 198.386719 111.640625 196.183594 119.726562 194.539062 C 123.828125 193.71875 127.65625 192.894531 128.242188 192.699219 C 129.804688 192.203125 130.859375 190.886719 130.859375 189.472656 C 130.859375 188.816406 128.320312 181.019531 125.15625 172.171875 C 122.03125 163.324219 116.132812 146.613281 112.03125 135.03125 C 107.96875 123.453125 103.59375 111.085938 102.34375 107.566406 C 88.28125 67.699219 85.351562 59.605469 84.882812 59.011719 C 84.570312 58.617188 83.867188 58.125 83.28125 57.925781 C 82.695312 57.730469 73.632812 56.085938 63.085938 54.277344 C 52.578125 52.433594 41.445312 50.527344 38.359375 50 C 31.953125 48.882812 30.585938 48.816406 29.335938 49.539062 Z M 29.335938 49.539062" stroke-linecap="round" />
</g>
</g>
</g>
</svg>